<?xml version="1.0" encoding="UTF-8" standalone="no" ?>
<!DOCTYPE svg PUBLIC "-//W3C//DTD SVG 1.1//EN" "http://www.w3.org/Graphics/SVG/1.1/DTD/svg11.dtd">
<svg xmlns="http://www.w3.org/2000/svg" xmlns:xlink="http://www.w3.org/1999/xlink" version="1.1" width="640" height="640" viewBox="0 0 640 640" xml:space="preserve">
<desc>Created with Fabric.js 5.3.0</desc>
<defs>
</defs>
<g transform="matrix(0.2981073496 0 0 0.2981073496 398.1220437624 285.0220742764)" id="qI3uKNL8AS5uYPTx0WRWt"  >
<path style="stroke: rgb(0,0,0); stroke-width: 6; stroke-dasharray: none; stroke-linecap: butt; stroke-dashoffset: 0; stroke-linejoin: miter; stroke-miterlimit: 4; fill: none; fill-rule: nonzero; opacity: 1;"  transform=" translate(-0.0000022104, 0.0000016604)" d="M 161.90625 -154.91827 C 211.20625 -105.71827 245.70625 -41.61827000000001 240.20625 16.98173 C 234.70625 75.48173 189.00625000000002 128.58173 139.70625 170.08173 C 90.40625000000001 211.58173 37.306250000000006 241.48173 -16.09375 241.88173 C -69.39375 242.18173000000002 -123.19375 212.98173 -163.19375 171.48173 C -203.19375 129.98173 -229.39375 76.18173 -237.89375 13.981729999999999 C -246.39375 -48.218270000000004 -237.09375 -118.91827 -197.09375 -168.11827 C -157.09375 -217.31826999999998 -86.39375 -244.91827 -18.993750000000006 -241.61827 C 48.40625 -238.31826999999998 112.50625 -204.11827 161.90625 -154.91827" stroke-linecap="round" />
</g>
<g transform="matrix(0.3119455336 0 0 0.3119455336 238.5604228643 285.0220742764)" id="ThG7ZB1GDGXRKsOdnmsz2"  >
<path style="stroke: rgb(0,0,0); stroke-width: 6; stroke-dasharray: none; stroke-linecap: butt; stroke-dashoffset: 0; stroke-linejoin: miter; stroke-miterlimit: 4; fill: none; fill-rule: nonzero; opacity: 1;"  transform=" translate(0.0000025013, -0.0000013515)" d="M 147.26085 -165.05438 C 197.26085 -119.75438000000001 239.26085 -61.75438000000001 243.76085 0.7456200000000024 C 248.16085 63.14562 215.16085 130.14562 165.16085 175.24562 C 115.16085000000001 220.44562000000002 48.16085000000001 243.84562 -15.239149999999995 240.34562 C -78.63915 236.74562 -138.43914999999998 206.34562 -180.63915 161.14562 C -222.83915000000002 115.94562 -247.23915 56.14562000000001 -243.83915000000002 -0.3543799999999919 C -240.43915 -56.75437999999999 -209.13915000000003 -109.85437999999999 -166.93915 -155.15438 C -124.83915000000002 -200.45438000000001 -71.73915000000001 -238.15438 -16.239150000000024 -240.55438 C 39.26084999999998 -243.05438 97.26084999999998 -210.35438000000002 147.26084999999998 -165.05438" stroke-linecap="round" />
</g>
<g transform="matrix(0.3039697415 0 0 0.3039697415 77.7758878593 278.4880091413)" id="FXnz5hajo63JeEebaNh_n"  >
<path style="stroke: rgb(0,0,0); stroke-width: 6; stroke-dasharray: none; stroke-linecap: butt; stroke-dashoffset: 0; stroke-linejoin: miter; stroke-miterlimit: 4; fill: none; fill-rule: nonzero; opacity: 1;"  transform=" translate(5.111e-7, 0.0000046768)" d="M 183.30126 -183.84204 C 232.10126000000002 -145.64204 259.00126 -74.94203999999999 250.20126000000002 -13.042039999999986 C 241.40126 48.75796000000001 196.70126000000002 101.85796000000002 147.90126000000004 144.65796 C 99.10126000000004 187.45796 46.00126000000003 220.15796 -11.798739999999952 224.95796 C -69.69873999999996 229.75796000000003 -132.39873999999995 206.85796000000002 -177.59873999999996 163.95796 C -222.69873999999996 121.15796000000002 -250.39873999999998 58.457960000000014 -251.79873999999995 -5.64203999999998 C -253.19873999999996 -69.74203999999997 -228.39873999999995 -135.34203999999997 -183.19873999999996 -173.44204 C -138.09873999999996 -211.64204 -72.49873999999996 -222.44204 -4.398739999999947 -225.04204 C 63.70126000000005 -227.64203999999998 134.40126000000006 -222.04204 183.30126000000004 -183.84204" stroke-linecap="round" />
</g>
<g transform="matrix(0.2898022819 0 0 0.2898022819 556.0359914436 282.2584857256)" id="Pcq_vFMNRslZmZOFF_wUl"  >
<path style="stroke: rgb(0,0,0); stroke-width: 6; stroke-dasharray: none; stroke-linecap: butt; stroke-dashoffset: 0; stroke-linejoin: miter; stroke-miterlimit: 4; fill: none; fill-rule: nonzero; opacity: 1;"  transform=" translate(3.7939697855, -16.2818836545)" d="M 155.9 -145.7 C 205.7 -106.1 252.4 -53 258.8 6.5 C 265.3 66 231.7 132 181.8 178 C 132 224 66 250 -1.5 251.5 C -69.1 253.1 -138.1 230.1 -188.1 184.1 C -238.1 138.1 -269.1 69.1 -267.1 2 C -265.1 -65.1 -230.1 -130.1 -180.1 -169.8 C -130.1 -209.4 -65.1 -223.7 -6 -217.7 C 53 -211.7 106.1 -185.4 155.9 -145.7" stroke-linecap="round" />
</g>
</svg>