<?xml version="1.0" encoding="UTF-8" standalone="no" ?>
<!DOCTYPE svg PUBLIC "-//W3C//DTD SVG 1.1//EN" "http://www.w3.org/Graphics/SVG/1.1/DTD/svg11.dtd">
<svg xmlns="http://www.w3.org/2000/svg" xmlns:xlink="http://www.w3.org/1999/xlink" version="1.1" width="1200" height="1200" viewBox="0 0 640 640" xml:space="preserve">
<desc>Created with Fabric.js 5.3.0</desc>
<defs>
</defs>
<g transform="matrix(0.1298114459 0 0 -0.1298114459 320 456.3146576411)" id="2eP5bsHidu7mXIiLRTeCQ"  >
<path style="stroke: rgb(0,0,0); stroke-width: 4; stroke-dasharray: none; stroke-linecap: butt; stroke-dashoffset: 0; stroke-linejoin: miter; stroke-miterlimit: 4; fill: none; fill-rule: nonzero; opacity: 1;"  transform=" translate(-1.9853213722, -8.1629203665)" d="M 178.5 -180.5 C 222.7 -134.4 243.8 -67.2 238.9 -4.9 C 233.9 57.3 202.9 114.6 158.7 163.9 C 114.6 213.2 57.3 254.6 -6.7 261.3 C -70.7 268 -141.4 240.1 -184.3 190.8 C -227.1 141.4 -242 70.7 -233.2 8.8 C -224.4 -53 -191.7 -106.1 -148.9 -152.2 C -106.1 -198.4 -53 -237.7 7.1 -244.8 C 67.2 -251.8 134.4 -226.7 178.5 -180.5" stroke-linecap="round" />
</g>
<g transform="matrix(-0.130196562 0 0 0.130196562 320 185.5433506249)" id="yTg_VhtgfQQSiE3P2Y4B0"  >
<path style="stroke: rgb(0,0,0); stroke-width: 4; stroke-dasharray: none; stroke-linecap: butt; stroke-dashoffset: 0; stroke-linejoin: miter; stroke-miterlimit: 4; fill: none; fill-rule: nonzero; opacity: 1;"  transform=" translate(6.6369764889, 2.0617698486)" d="M 178.9 -189.8 C 216.4 -141.4 220.7 -70.7 214.4 -6.4 C 208 58 191 116 153.5 164.1 C 116 212.3 58 250.6 -6 256.7 C -70 262.7 -140 236.3 -180.5 188.2 C -221 140 -232 70 -229.8 2.2 C -227.5 -65.5 -212.1 -131.1 -171.6 -179.4 C -131.1 -227.7 -65.5 -258.9 2.6 -261.5 C 70.7 -264 141.4 -238.1 178.9 -189.8" stroke-linecap="round" />
</g>
<g transform="matrix(0.1288518943 0 0 -0.1288518943 457.9320903544 320)" id="4zjNPxqiqUrPJl7SuxsWv"  >
<path style="stroke: rgb(0,0,0); stroke-width: 4; stroke-dasharray: none; stroke-linecap: butt; stroke-dashoffset: 0; stroke-linejoin: miter; stroke-miterlimit: 4; fill: none; fill-rule: nonzero; opacity: 1;"  transform=" translate(6.7491856246, -0.4244004386)" d="M 168.5 -167.6 C 207.3 -129.6 220.2 -64.8 218.6 -1.5 C 217.1 61.8 201.2 123.5 162.3 161 C 123.5 198.5 61.8 211.8 -4.5 216.2 C -70.7 220.7 -141.4 216.4 -182.4 178.9 C -223.4 141.4 -234.7 70.7 -231.8 2.9 C -228.8 -64.8 -211.6 -129.6 -170.6 -167.6 C -129.6 -205.6 -64.8 -216.8 0 -216.8 C 64.8 -216.8 129.6 -205.6 168.5 -167.6" stroke-linecap="round" />
</g>
<g transform="matrix(-0.1339776297 0 0 0.1339776297 176.6772551962 320)" id="LTSPvd8gdyUqXDMGjhGmg"  >
<path style="stroke: rgb(0,0,0); stroke-width: 4; stroke-dasharray: none; stroke-linecap: butt; stroke-dashoffset: 0; stroke-linejoin: miter; stroke-miterlimit: 4; fill: none; fill-rule: nonzero; opacity: 1;"  transform=" translate(-9.2907393347, 20.9872825567)" d="M 174.8 -180.1 C 219.4 -130.1 243.7 -65.1 242.8 -0.9 C 241.8 63.2 215.7 126.3 171 165.3 C 126.3 204.3 63.2 219.2 1.5 217.6 C -60.1 216.1 -120.2 198.2 -162 159.2 C -203.9 120.2 -227.4 60.1 -223.9 3.5 C -220.4 -53 -189.7 -106.1 -147.9 -156.1 C -106.1 -206.1 -53 -253 6 -259 C 65.1 -265.1 130.1 -230.1 174.8 -180.1" stroke-linecap="round" />
</g>
<g transform="matrix(-0.4124803362 0 0 0.4124803362 320 320)" id="tt2kicrFbN-FI4fK5OJSE"  >
<path style="stroke: rgb(0,0,0); stroke-width: 4; stroke-dasharray: none; stroke-linecap: butt; stroke-dashoffset: 0; stroke-linejoin: miter; stroke-miterlimit: 4; fill: none; fill-rule: nonzero; opacity: 1;"  transform=" translate(22.1914600236, 12.4332071758)" d="M 160.5 -164.3 C 200.3 -120.7 219.7 -60.3 216.3 -3.4 C 212.8 53.5 186.7 107 146.8 147.2 C 107 187.3 53.5 214.2 0.2 213.9 C -53 213.7 -106.1 186.4 -156.1 146.2 C -206.1 106.1 -253 53 -260.1 -7.1 C -267.2 -67.2 -234.4 -134.4 -184.4 -178 C -134.4 -221.7 -67.2 -241.8 -3.4 -238.4 C 60.3 -235 120.7 -208 160.5 -164.3" stroke-linecap="round" />
</g>
<g transform="matrix(0.1196770626 0 0 -0.1196770626 399.0535795942 178.9545961726)" id="bcWkvOTd5vSiMiXcwibek"  >
<path style="stroke: rgb(0,0,0); stroke-width: 4; stroke-dasharray: none; stroke-linecap: butt; stroke-dashoffset: 0; stroke-linejoin: miter; stroke-miterlimit: 4; fill: none; fill-rule: nonzero; opacity: 1;"  transform=" translate(-12.4415463665, -19.1203014129)" d="M 165.5 -153 C 215.5 -115.5 257.7 -57.7 257.5 -0.2 C 257.3 57.3 214.6 114.6 164.6 161.9 C 114.6 209.2 57.3 246.6 -0.6 247.2 C -58.5 247.8 -116.9 211.6 -160.2 164.2 C -203.6 116.9 -231.8 58.5 -232.6 -0.8 C -233.4 -60.1 -206.9 -120.2 -163.5 -157.7 C -120.2 -195.2 -60.1 -210.1 -1.2 -208.9 C 57.7 -207.8 115.5 -190.5 165.5 -153" stroke-linecap="round" />
</g>
<g transform="matrix(0.1155139805 0 0 -0.1155139805 245.4951125821 178.9870869553)" id="zNprG5a78FjuzTLj2chlI"  >
<path style="stroke: rgb(0,0,0); stroke-width: 4; stroke-dasharray: none; stroke-linecap: butt; stroke-dashoffset: 0; stroke-linejoin: miter; stroke-miterlimit: 4; fill: none; fill-rule: nonzero; opacity: 1;"  transform=" translate(-3.5590229984, -17.1279829608)" d="M 185.6 -178.9 C 229.8 -141.4 247.4 -70.7 246 -1.4 C 244.5 67.9 224.1 135.8 179.9 182.9 C 135.8 230.1 67.9 256.5 3.7 252.9 C -60.6 249.2 -121.2 215.5 -165 168.3 C -208.8 121.2 -235.9 60.6 -238.7 -2.8 C -241.6 -66.2 -220.1 -132.5 -176.3 -170 C -132.5 -207.5 -66.2 -216.2 2.2 -218.5 C 70.7 -220.7 141.4 -216.4 185.6 -178.9" stroke-linecap="round" />
</g>
<g transform="matrix(0.1231853806 0 0 -0.1231853806 367.3817329335 108.3852898212)" id="KSjoESGDrYlqqKg_pAMDD"  >
<path style="stroke: rgb(0,0,0); stroke-width: 4; stroke-dasharray: none; stroke-linecap: butt; stroke-dashoffset: 0; stroke-linejoin: miter; stroke-miterlimit: 4; fill: none; fill-rule: nonzero; opacity: 1;"  transform=" translate(-14.8467383378, -4.3314660096)" d="M 169.4 -162.2 C 216.2 -122.6 248.6 -61.3 245.9 -2.7 C 243.2 55.9 205.4 111.7 158.6 151.9 C 111.7 192.1 55.9 216.5 -7.4 224 C -70.7 231.4 -141.4 221.8 -178.9 181.6 C -216.4 141.4 -220.7 70.7 -213.4 7.3 C -206.1 -56.1 -187.2 -112.2 -149.7 -151.9 C -112.2 -191.5 -56.1 -214.8 2.6 -217.4 C 61.3 -219.9 122.6 -201.9 169.4 -162.2" stroke-linecap="round" />
</g>
<g transform="matrix(0.1157414935 0 0 -0.1157414935 455.4250496135 397.2832696598)" id="u755zwdCCtrN0XSSDxxys"  >
<path style="stroke: rgb(0,0,0); stroke-width: 4; stroke-dasharray: none; stroke-linecap: butt; stroke-dashoffset: 0; stroke-linejoin: miter; stroke-miterlimit: 4; fill: none; fill-rule: nonzero; opacity: 1;"  transform=" translate(14.4479582339, 4.4134514689)" d="M 172.8 -185.3 C 210.3 -135.3 217.6 -67.6 214.5 -3.2 C 211.3 61.3 197.6 122.6 160.1 170.4 C 122.6 218.2 61.3 252.6 0.1 252.5 C -61 252.4 -122.1 217.8 -168.8 169.9 C -215.4 122.1 -247.7 61 -243.7 4 C -239.7 -53 -199.4 -106.1 -152.7 -156.1 C -106.1 -206.1 -53 -253 7.3 -260.3 C 67.6 -267.6 135.3 -235.3 172.8 -185.3" stroke-linecap="round" />
</g>
<g transform="matrix(0.1142633247 0 0 -0.1142633247 477.4247807885 254.2187875804)" id="EKDUD0Zo5hlqH9z8G3PTe"  >
<path style="stroke: rgb(0,0,0); stroke-width: 4; stroke-dasharray: none; stroke-linecap: butt; stroke-dashoffset: 0; stroke-linejoin: miter; stroke-miterlimit: 4; fill: none; fill-rule: nonzero; opacity: 1;"  transform=" translate(3.3606045312, 19.4302414291)" d="M 167.1 -179.1 C 204.6 -129.6 214.8 -64.8 213.8 -1.1 C 212.7 62.7 200.4 125.4 162.9 165.9 C 125.4 206.4 62.7 224.7 -2.2 226.9 C -67.2 229.2 -134.4 215.4 -172.2 174.9 C -210 134.4 -218.5 67.2 -220.3 -1.8 C -222 -70.7 -217.1 -141.4 -179.3 -190.9 C -141.4 -240.4 -70.7 -268.7 -2.9 -265.8 C 64.8 -262.8 129.6 -228.6 167.1 -179.1" stroke-linecap="round" />
</g>
<g transform="matrix(-0.1170192173 0 0 0.1170192173 530.554292483 305.1460660812)" id="344FYxPSFi-QnJcXidYgI"  >
<path style="stroke: rgb(0,0,0); stroke-width: 4; stroke-dasharray: none; stroke-linecap: butt; stroke-dashoffset: 0; stroke-linejoin: miter; stroke-miterlimit: 4; fill: none; fill-rule: nonzero; opacity: 1;"  transform=" translate(-24.8761231749, -7.2220110544)" d="M 191.3 -182.4 C 241.1 -141.4 270 -70.7 261.3 -8.7 C 252.6 53.3 206.2 106.5 156.4 152 C 106.5 197.5 53.3 235.3 -7.1 242.3 C -67.4 249.4 -134.8 225.8 -172.3 180.3 C -209.8 134.8 -217.4 67.4 -211.1 6.4 C -204.7 -54.7 -184.4 -109.4 -146.9 -150.4 C -109.4 -191.4 -54.7 -218.7 8 -226.7 C 70.7 -234.7 141.4 -223.4 191.3 -182.4" stroke-linecap="round" />
</g>
<g transform="matrix(-0.1125682201 0 0 0.1125682201 525.1056350905 369.2635525908)" id="AItbc9-PUl45xN5CuDDy3"  >
<path style="stroke: rgb(0,0,0); stroke-width: 4; stroke-dasharray: none; stroke-linecap: butt; stroke-dashoffset: 0; stroke-linejoin: miter; stroke-miterlimit: 4; fill: none; fill-rule: nonzero; opacity: 1;"  transform=" translate(6.0160404574, 0.0259931663)" d="M 154.1 -150.6 C 202.1 -106.1 245 -53 252.1 7.1 C 259.2 67.2 230.4 134.4 182.4 177.2 C 134.4 220 67.2 238.5 0.8 237.7 C -65.5 236.9 -131.1 216.7 -181.1 173.9 C -231.1 131.1 -265.5 65.5 -265.2 0.4 C -264.8 -64.8 -229.6 -129.6 -179.6 -174.1 C -129.6 -218.6 -64.8 -242.8 -5.9 -236.9 C 53 -231 106.1 -195.1 154.1 -150.6" stroke-linecap="round" />
</g>
<g transform="matrix(0.1208020051 0 0 -0.1208020051 240.5910745277 476.5123229621)" id="bZ4BX9sLDIOdgXO7ic5VN"  >
<path style="stroke: rgb(0,0,0); stroke-width: 4; stroke-dasharray: none; stroke-linecap: butt; stroke-dashoffset: 0; stroke-linejoin: miter; stroke-miterlimit: 4; fill: none; fill-rule: nonzero; opacity: 1;"  transform=" translate(-2.2669991089, -8.5606605304)" d="M 161.1 -166.6 C 200.6 -121.6 218.8 -60.8 216.8 -2 C 214.8 56.8 192.6 113.6 153.1 163.6 C 113.6 213.6 56.8 256.8 1.9 254.9 C -53 253 -106.1 206.1 -145.7 156.1 C -185.4 106.1 -211.7 53 -212.4 -0.7 C -213.1 -54.4 -188.2 -108.9 -148.6 -153.9 C -108.9 -198.9 -54.4 -234.4 3.2 -237.6 C 60.8 -240.8 121.6 -211.6 161.1 -166.6" stroke-linecap="round" />
</g>
<g transform="matrix(0.1239912775 0 0 -0.1239912775 273.7403565455 539.6739062136)" id="PXpLcjUfaHtaWv8IE6DlN"  >
<path style="stroke: rgb(0,0,0); stroke-width: 4; stroke-dasharray: none; stroke-linecap: butt; stroke-dashoffset: 0; stroke-linejoin: miter; stroke-miterlimit: 4; fill: none; fill-rule: nonzero; opacity: 1;"  transform=" translate(-7.8274225592, -8.0096731535)" d="M 183.4 -179.2 C 227.2 -139.5 245.1 -69.8 245.6 0.5 C 246 70.7 229.1 141.4 185.3 183.9 C 141.4 226.4 70.7 240.7 2 238.7 C -66.7 236.7 -133.4 218.4 -175.6 175.9 C -217.7 133.4 -235.4 66.7 -228.5 6.8 C -221.7 -53 -190.4 -106.1 -148.2 -145.7 C -106.1 -185.4 -53 -211.7 8.4 -220.1 C 69.8 -228.4 139.5 -218.9 183.4 -179.2" stroke-linecap="round" />
</g>
<g transform="matrix(-0.118719986 0 0 0.118719986 342.0201585543 538.5649938394)" id="dhFLLX3-Od4yyxpx_66dy"  >
<path style="stroke: rgb(0,0,0); stroke-width: 4; stroke-dasharray: none; stroke-linecap: butt; stroke-dashoffset: 0; stroke-linejoin: miter; stroke-miterlimit: 4; fill: none; fill-rule: nonzero; opacity: 1;"  transform=" translate(10.6979180397, 13.7671420787)" d="M 178.9 -185.6 C 216.4 -141.4 220.7 -70.7 218 -2.7 C 215.3 65.3 205.6 130.6 168.1 168.2 C 130.6 205.9 65.3 216 -1.9 217.8 C -69.1 219.7 -138.1 213.5 -181.1 175.8 C -224.1 138.1 -241.1 69.1 -240 1.1 C -238.9 -66.9 -219.9 -133.9 -176.9 -178 C -133.9 -222.2 -66.9 -243.6 1.9 -245.5 C 70.7 -247.4 141.4 -229.8 178.9 -185.6" stroke-linecap="round" />
</g>
<g transform="matrix(-0.122565171 0 0 0.122565171 396.1098237585 470.0126862537)" id="w3h6_cj9pM2uh2UJSVeli"  >
<path style="stroke: rgb(0,0,0); stroke-width: 4; stroke-dasharray: none; stroke-linecap: butt; stroke-dashoffset: 0; stroke-linejoin: miter; stroke-miterlimit: 4; fill: none; fill-rule: nonzero; opacity: 1;"  transform=" translate(1.719093401, 7.3257567443)" d="M 170.3 -174.3 C 208.7 -132 219.3 -66 215.4 -3.9 C 211.6 58.2 193.1 116.4 154.8 155.3 C 116.4 194.1 58.2 213.6 -6.2 219.8 C -70.7 226 -141.4 219.1 -178.9 180.3 C -216.4 141.4 -220.7 70.7 -219.4 1.3 C -218.1 -68.1 -211.2 -136.2 -173.7 -178.6 C -136.2 -220.9 -68.1 -237.5 -1.1 -236.4 C 66 -235.3 132 -216.7 170.3 -174.3" stroke-linecap="round" />
</g>
<g transform="matrix(-0.1125442411 0 0 0.1125442411 106.4409067594 364.0854509436)" id="uo5xgnevzjUGvZGK61v-h"  >
<path style="stroke: rgb(0,0,0); stroke-width: 4; stroke-dasharray: none; stroke-linecap: butt; stroke-dashoffset: 0; stroke-linejoin: miter; stroke-miterlimit: 4; fill: none; fill-rule: nonzero; opacity: 1;"  transform=" translate(-6.8343819714, -5.9307372182)" d="M 185.9 -182.4 C 230.4 -141.4 248.7 -70.7 248 -0.7 C 247.3 69.3 227.6 138.6 183.1 183.6 C 138.6 228.6 69.3 249.3 8.1 241.2 C -53 233 -106.1 196.1 -150.2 151.1 C -194.4 106.1 -229.7 53 -233.9 -4.2 C -238.2 -61.5 -211.4 -123 -167.2 -164 C -123 -205 -61.5 -225.5 4.6 -230.1 C 70.7 -234.7 141.4 -223.4 185.9 -182.4" stroke-linecap="round" />
</g>
<g transform="matrix(0.1192398498 0 0 -0.1192398498 106.0603260892 291.7525207293)" id="E2L1tM4SElTdxjtIpS1et"  >
<path style="stroke: rgb(0,0,0); stroke-width: 4; stroke-dasharray: none; stroke-linecap: butt; stroke-dashoffset: 0; stroke-linejoin: miter; stroke-miterlimit: 4; fill: none; fill-rule: nonzero; opacity: 1;"  transform=" translate(-6.2089495234, 6.9067000229)" d="M 178.1 -184.9 C 219.9 -136.2 235.5 -68.1 229.2 -6.2 C 223 55.6 194.9 111.3 153.1 156.8 C 111.3 202.3 55.6 237.6 -7.5 245.2 C -70.7 252.7 -141.4 232.4 -178.9 186.9 C -216.4 141.4 -220.7 70.7 -217.1 3.7 C -213.4 -63.4 -201.8 -126.8 -164.3 -175.5 C -126.8 -224.1 -63.4 -258.1 2.4 -260.4 C 68.1 -262.8 136.2 -233.6 178.1 -184.9" stroke-linecap="round" />
</g>
<g transform="matrix(0.1247235351 0 0 -0.1247235351 173.4173903485 396.2518755868)" id="d6H5Gxc_kXQ-ycBp2ZuBs"  >
<path style="stroke: rgb(0,0,0); stroke-width: 4; stroke-dasharray: none; stroke-linecap: butt; stroke-dashoffset: 0; stroke-linejoin: miter; stroke-miterlimit: 4; fill: none; fill-rule: nonzero; opacity: 1;"  transform=" translate(-16.2934198501, 7.7528060233)" d="M 156.1 -150.9 C 206.1 -106.1 253 -53 254.9 1.9 C 256.8 56.8 213.6 113.6 163.6 155.3 C 113.6 196.9 56.8 223.5 1.3 222.2 C -54.2 220.9 -108.4 191.8 -149.3 150.1 C -190.1 108.4 -217.5 54.2 -221.8 -4.2 C -226 -62.7 -207.1 -125.4 -166.2 -170.2 C -125.4 -215.1 -62.7 -242 -4.8 -237.2 C 53 -232.4 106.1 -195.7 156.1 -150.9" stroke-linecap="round" />
</g>
<g transform="matrix(0.1170754701 0 0 -0.1170754701 174.2776377592 254.2187875804)" id="MxOXEc7MmGPKrTFGDtmep"  >
<path style="stroke: rgb(0,0,0); stroke-width: 4; stroke-dasharray: none; stroke-linecap: butt; stroke-dashoffset: 0; stroke-linejoin: miter; stroke-miterlimit: 4; fill: none; fill-rule: nonzero; opacity: 1;"  transform=" translate(13.1264343904, -9.5368590387)" d="M 178.7 -174.9 C 220.7 -136.7 236.4 -68.4 233.6 -2.7 C 230.9 62.9 209.9 125.9 167.9 168.5 C 125.9 211.2 62.9 233.6 -1.4 235 C -65.8 236.4 -131.5 216.9 -181.5 174.2 C -231.5 131.5 -265.8 65.8 -259.4 6.4 C -253 -53 -206.1 -106.1 -156.1 -144.2 C -106.1 -182.4 -53 -205.7 7.7 -213.4 C 68.4 -221 136.7 -213 178.7 -174.9" stroke-linecap="round" />
</g>
<g transform="matrix(0.1275256523 0 0 -0.1275256523 290.7071816978 105.8773984801)" id="RMhXQCJJn3qjENiMNGrWd"  >
<path style="stroke: rgb(0,0,0); stroke-width: 4; stroke-dasharray: none; stroke-linecap: butt; stroke-dashoffset: 0; stroke-linejoin: miter; stroke-miterlimit: 4; fill: none; fill-rule: nonzero; opacity: 1;"  transform=" translate(-15.6027076337, -30.0804957933)" d="M 155.5 -146.9 C 201.7 -109.4 239.3 -54.7 243 3.7 C 246.7 62 216.3 124 170.1 174 C 124 224 62 262 -2 264 C -66 266 -132 232 -169.7 182 C -207.3 132 -216.7 66 -210.2 6.5 C -203.7 -53 -181.4 -106.1 -143.7 -143.6 C -106.1 -181.1 -53 -203 0.8 -203.9 C 54.7 -204.7 109.4 -184.4 155.5 -146.9" stroke-linecap="round" />
</g>
</svg>