<?xml version="1.0" encoding="UTF-8" standalone="no" ?>
<!DOCTYPE svg PUBLIC "-//W3C//DTD SVG 1.1//EN" "http://www.w3.org/Graphics/SVG/1.1/DTD/svg11.dtd">
<svg xmlns="http://www.w3.org/2000/svg" xmlns:xlink="http://www.w3.org/1999/xlink" version="1.1" width="650" height="650" viewBox="0 0 640 640" xml:space="preserve">
<desc>Created with Fabric.js 5.3.0</desc>
<defs>
</defs>
<g transform="matrix(1 0 0 1 323.9635871652 279.1301319378)" id="5D_RVjOJiwgVnparPT-ol"  >
<path style="stroke: rgb(3,3,3); stroke-width: 3; stroke-dasharray: none; stroke-linecap: butt; stroke-dashoffset: 0; stroke-linejoin: miter; stroke-miterlimit: 4; fill: none; fill-rule: nonzero; opacity: 1;"  transform=" translate(-225.0489253226, -223.1373363142)" d="M 223.35705 124.15925 C 272.45646999999997 124.15925 312.30527 164.00805 312.30527 213.10747 C 312.30527 262.20689 272.45647 302.05569 223.35705000000002 302.05569 C 174.25763 302.05569 134.40883000000002 262.20689000000004 134.40883000000002 213.10747000000003 C 134.40883000000002 164.00805000000003 174.25763 124.15925000000003 223.35705000000002 124.15925000000003 z M 109.77527 204.31678 C 109.77527 224.95573 93.02482 241.70618 72.38587000000001 241.70618 C 51.74692000000001 241.70618 34.99647000000001 224.95573 34.99647000000001 204.31678 C 34.99647000000001 183.67783 51.74692000000001 166.92738 72.38587000000001 166.92738 C 93.02482 166.92738 109.77527 183.67783 109.77527 204.31678 z M 34.4775 248.75687 C 34.4775 258.27266 26.75454 265.99562 17.23875 265.99562 C 7.722959999999999 265.99562 0 258.27266 0 248.75686999999996 C 0 239.24107999999995 7.72296 231.51811999999995 17.23875 231.51811999999995 C 26.75454 231.51811999999995 34.4775 239.24107999999995 34.4775 248.75686999999996 z M 34.4775 166.57219 C 34.4775 176.08798000000002 26.75454 183.81094000000002 17.23875 183.81094000000002 C 7.722959999999999 183.81094000000002 0 176.08798000000002 0 166.57219 C 0 157.0564 7.72296 149.33344 17.23875 149.33344 C 26.75454 149.33344 34.4775 157.0564 34.4775 166.57219 z M 89.62462 283.5619 C 89.62462 293.07768999999996 81.90165999999999 300.80064999999996 72.38587 300.80064999999996 C 62.870079999999994 300.80064999999996 55.14712 293.07768999999996 55.14712 283.5619 C 55.14712 274.04611 62.87008 266.32315 72.38587 266.32315 C 81.90165999999999 266.32315 89.62462 274.04611 89.62462 283.5619 z M 89.62462 142.65303 C 89.62462 152.16882 81.90165999999999 159.89178 72.38587 159.89178 C 62.870079999999994 159.89178 55.14712 152.16882 55.14712 142.65303 C 55.14712 133.13724 62.87008 125.41428 72.38587 125.41428 C 81.90165999999999 125.41428 89.62462 133.13724 89.62462 142.65303 z M 377.71198 166.92738 C 398.35093 166.92738 415.10138 183.67783 415.10138 204.31678 C 415.10138 224.95573 398.35093 241.70618 377.71198 241.70618 C 357.07302999999996 241.70618 340.32257999999996 224.95573 340.32257999999996 204.31678 C 340.32257999999996 183.67783 357.07302999999996 166.92738 377.71198 166.92738 z M 432.8591 231.51812 C 442.37489 231.51812 450.09785 239.24108 450.09785 248.75687000000002 C 450.09785 258.27266000000003 442.37489 265.99562000000003 432.8591 265.99562000000003 C 423.34331000000003 265.99562000000003 415.62035000000003 258.27266000000003 415.62035000000003 248.75687000000002 C 415.62035000000003 239.24108 423.34331000000003 231.51812 432.8591 231.51812 z M 432.8591 149.33344 C 442.37489 149.33344 450.09785 157.0564 450.09785 166.57219 C 450.09785 176.08798000000002 442.37489 183.81094000000002 432.8591 183.81094000000002 C 423.34331000000003 183.81094000000002 415.62035000000003 176.08798000000002 415.62035000000003 166.57219 C 415.62035000000003 157.0564 423.34331000000003 149.33344 432.8591 149.33344 z M 377.71198 266.32315 C 387.22776999999996 266.32315 394.95072999999996 274.04611 394.95072999999996 283.5619 C 394.95072999999996 293.07768999999996 387.22776999999996 300.80064999999996 377.71198 300.80064999999996 C 368.19619 300.80064999999996 360.47323 293.07768999999996 360.47323 283.5619 C 360.47323 274.04611 368.19619 266.32315 377.71198 266.32315 z M 377.71198 125.41428 C 387.22776999999996 125.41428 394.95072999999996 133.13724 394.95072999999996 142.65303 C 394.95072999999996 152.16882 387.22776999999996 159.89178 377.71198 159.89178 C 368.19619 159.89178 360.47323 152.16882 360.47323 142.65303 C 360.47323 133.13724 368.19619 125.41428 377.71198 125.41428 z M 229.87602 109.77527 C 209.23707000000002 109.77527 192.48662000000002 93.02482 192.48662000000002 72.38587000000001 C 192.48662000000002 51.74692000000001 209.23707000000002 34.99647000000001 229.87602 34.99647000000001 C 250.51497 34.99647000000001 267.26542 51.74692000000001 267.26542 72.38587000000001 C 267.26542 93.02482 250.51497 109.77527 229.87602 109.77527 z M 185.43593 34.4775 C 175.92014 34.4775 168.19718 26.75454 168.19718 17.23875 C 168.19718 7.722959999999999 175.92014 0 185.43593 0 C 194.95172000000002 0 202.67468000000002 7.72296 202.67468000000002 17.23875 C 202.67468000000002 26.75454 194.95172000000002 34.4775 185.43593 34.4775 z M 267.62061 34.4775 C 258.10482 34.4775 250.38186 26.75454 250.38186 17.23875 C 250.38186 7.722959999999999 258.10481999999996 0 267.62061 0 C 277.1364 0 284.85936 7.72296 284.85936 17.23875 C 284.85936 26.75454 277.1364 34.4775 267.62061 34.4775 z M 150.6309 89.62462 C 141.11511 89.62462 133.39215 81.90165999999999 133.39215 72.38587 C 133.39215 62.870079999999994 141.11511 55.14712 150.6309 55.14712 C 160.14669 55.14712 167.86965 62.87008 167.86965 72.38587 C 167.86965 81.90165999999999 160.14669 89.62462 150.6309 89.62462 z M 291.53977 89.62462 C 282.02398 89.62462 274.30102 81.90165999999999 274.30102 72.38587 C 274.30102 62.870079999999994 282.02398 55.14712 291.53977 55.14712 C 301.05555999999996 55.14712 308.77851999999996 62.87008 308.77851999999996 72.38587 C 308.77851999999996 81.90165999999999 301.05555999999996 89.62462 291.53977 89.62462 z M 269.40703 373.8888 C 269.40703 394.52775 252.65658000000002 411.2782 232.01763000000003 411.2782 C 211.37868000000003 411.2782 194.62823000000003 394.52775 194.62823000000003 373.8888 C 194.62823000000003 353.24985 211.37868000000003 336.4994 232.01763000000003 336.4994 C 252.65658000000002 336.4994 269.40703 353.24985 269.40703 373.8888 z M 204.81629 429.03592 C 204.81629 438.55170999999996 197.09333 446.27466999999996 187.57754 446.27466999999996 C 178.06175 446.27466999999996 170.33879 438.55170999999996 170.33879 429.03592 C 170.33879 419.52013 178.06175 411.79717 187.57754 411.79717 C 197.09333 411.79717 204.81629 419.52013 204.81629 429.03592 z M 287.00097 429.03592 C 287.00097 438.55170999999996 279.27801 446.27466999999996 269.76222 446.27466999999996 C 260.24643000000003 446.27466999999996 252.52347 438.55170999999996 252.52347 429.03592 C 252.52347 419.52013 260.24643 411.79717 269.76222 411.79717 C 279.27801 411.79717 287.00097 419.52013 287.00097 429.03592 z M 170.01126 373.8888 C 170.01126 383.40459 162.2883 391.12755 152.77250999999998 391.12755 C 143.25671999999997 391.12755 135.53375999999997 383.40459 135.53375999999997 373.8888 C 135.53375999999997 364.37301 143.25671999999997 356.65005 152.77250999999998 356.65005 C 162.2883 356.65005 170.01126 364.37301 170.01126 373.8888 z M 310.92013 373.8888 C 310.92013 383.40459 303.19716999999997 391.12755 293.68138 391.12755 C 284.16559 391.12755 276.44263 383.40459 276.44263 373.8888 C 276.44263 364.37301 284.16559 356.65005 293.68138 356.65005 C 303.19716999999997 356.65005 310.92013 364.37301 310.92013 373.8888 z" stroke-linecap="round" />
</g>
</svg>