<?xml version="1.0" encoding="UTF-8" standalone="no" ?>
<!DOCTYPE svg PUBLIC "-//W3C//DTD SVG 1.1//EN" "http://www.w3.org/Graphics/SVG/1.1/DTD/svg11.dtd">
<svg xmlns="http://www.w3.org/2000/svg" xmlns:xlink="http://www.w3.org/1999/xlink" version="1.1" width="1200" height="1200" viewBox="0 0 640 640" xml:space="preserve">
<desc>Created with Fabric.js 5.3.0</desc>
<defs>
</defs>
<g transform="matrix(-1 0 0 1 316.5876399186 315.2709483778)" id="9TK5sFgMH1-yLbUSohTJ5"  >
<path style="stroke: rgb(0,0,0); stroke-width: 4; stroke-dasharray: none; stroke-linecap: butt; stroke-dashoffset: 0; stroke-linejoin: miter; stroke-miterlimit: 4; fill: none; fill-rule: nonzero; opacity: 1;"  transform=" translate(-257.2726394263, -268.5427462888)" d="M 261.34895 451.88383 C 253.54728 450.96217 246.65429 445.86057999999997 241.09836 439.86329 C 235.54244 433.87899 231.29760000000002 426.986 230.15526000000003 418.96365000000003 C 229.01292000000004 410.92832000000004 230.94711000000004 401.75066000000004 236.50304000000003 395.33797000000004 C 242.07195000000002 388.93826 251.24962000000002 385.31652 259.55755000000005 386.18626000000006 C 267.86548000000005 387.05599000000007 275.30368000000004 392.43019000000004 281.02836 398.82989000000003 C 286.76603 405.22959000000003 290.79018 412.66779 291.43924000000004 420.74206000000004 C 292.07532000000003 428.82931 289.33630000000005 437.55264000000005 283.59863 443.53695000000005 z M 236.52872 97.21638 C 241.41109 90.92789 250.61597999999998 87.5558 259.48237 87.88129 C 268.34875 88.2198 276.88965 92.28194 282.16261000000003 98.57043 C 287.43557000000004 104.85893 289.4406 113.39982 289.74005000000005 122.21413 C 290.02648000000005 131.04146 288.59432000000004 140.15521999999999 283.32136 146.43069 C 278.0484 152.69314 268.93464 156.13033 260.60206000000005 155.34915 C 252.26948000000004 154.55495000000002 244.71808000000004 149.56842 239.83571000000006 143.29295000000002 C 234.95334000000005 137.03050000000002 232.74000000000007 129.47910000000002 231.90674000000007 121.09444000000002 C 231.08650000000006 112.72280000000002 231.64635000000007 103.51790000000003 236.52872000000008 97.21639000000002 z M 427.11624 287.42473 C 422.10391 292.3211 413.7543 293.76424000000003 405.4047 293.76424000000003 C 397.0551 293.76424000000003 388.7055 292.3211 383.42257 287.42473 C 378.13964 282.52836 375.92339 274.17875000000004 375.53683 265.45548 C 375.16316 256.71932000000004 376.61918000000003 247.60950000000003 381.90211 242.77755000000002 C 387.18504 237.9456 396.29485999999997 237.39154000000002 404.82486 237.97137 C 413.36774 238.53831 421.31791 240.25204 426.31736 245.08399 C 431.3297 249.91593 433.37844 257.8661 433.57172 266.02242 C 433.77788000000004 274.17875000000004 432.11569000000003 282.52835 427.11624 287.42472000000004 z M 88.15573 244.4569 C 94.14453 237.75802 102.85307 233.06880999999998 110.77115 233.88607 C 118.67583 234.68993999999998 125.79005000000001 240.97349 131.39031 247.67237 C 136.99058 254.37125 141.10369 261.48546 141.57261 269.0552 C 142.04153 276.63834 138.89305 284.69039000000004 133.27939 289.91552 C 127.67913 295.14064 119.62707 297.53884 111.37405000000001 297.73981000000003 C 103.10763000000001 297.95417000000003 94.65364000000001 295.95791 88.66484000000001 290.73278000000005 C 82.67604000000001 285.50765000000007 79.17923000000002 277.05367000000007 79.04525000000001 268.4657 C 78.92467 259.86434 82.18033000000001 251.15579000000002 88.15573 244.45691000000002 z M 359.20311 114.72197 C 353.21925 119.20985999999999 346.30192 121.28028 339.25293999999997 121.41192 C 332.20395999999994 121.55552999999999 325.01136999999994 119.77234 319.82935 115.28444999999999 C 314.63536 110.79656 311.46392 103.60396999999999 311.55965999999995 96.50711999999999 C 311.65539999999993 89.41026999999998 315.03029999999995 82.42112999999999 320.22427999999996 76.76039999999999 C 325.4063 71.08769999999998 332.39543999999995 66.75538999999999 339.32473999999996 66.82719999999999 C 346.25404 66.89899999999999 353.11154 71.37491999999999 359.09538999999995 77.03564999999999 C 365.07923999999997 82.69636999999999 370.18944999999997 89.55386999999999 370.21338999999995 96.43529999999998 C 370.23732999999993 103.31673999999998 365.18694999999997 110.23406999999999 359.20309999999995 114.72195999999998 z M 317.42733 50.35565 C 311.66226 55.246109999999994 304.11098999999996 57.46344 296.88000999999997 57.15548 C 289.64903 56.8352 282.73832999999996 53.96498 278.11888 49.086839999999995 C 273.49943 44.19638 271.17122 37.28568 270.27197 29.475729999999995 C 269.37272 21.665779999999994 269.90242 12.956569999999996 274.52187000000004 8.004519999999996 C 279.14132 3.052469999999996 287.85053000000005 1.8698899999999963 295.64816 2.7814599999999956 C 303.44579000000004 3.7053499999999957 310.31954 6.7110799999999955 316.09693000000004 11.663129999999995 C 321.862 16.615179999999995 326.51841 23.488929999999996 326.85101000000003 30.707589999999996 C 327.18361000000004 37.92626 323.19241000000005 45.47752 317.42733000000004 50.35566 z M 445.73349 365.94114 C 441.39318000000003 371.72821 433.55748 375.46666000000005 426.57827000000003 374.62175 C 419.59906 373.77684 413.45318000000003 368.34856 408.05963 362.56149000000005 C 402.65450000000004 356.7744200000001 397.99012000000005 350.6285500000001 397.52715 344.03128000000004 C 397.06419 337.43402000000003 400.80264 330.36221000000006 406.19619 324.82977000000005 C 411.60132 319.28575000000006 418.67312 315.28109000000006 425.74493 315.26952000000006 C 432.82831 315.25795000000005 439.92326 319.23946000000007 444.26357 324.7719000000001 C 448.60388 330.3043400000001 450.18954 337.39929000000006 450.55991 344.86462000000006 C 450.91871 352.31838000000005 450.0738 360.1540800000001 445.73349 365.94115000000005 z M 441.7839 212.22578 C 437.49902000000003 217.88180999999997 430.09476 221.78961999999999 422.35913 222.13241 C 414.61208 222.46377999999999 406.53366 219.23012 402.20308 213.57408999999998 C 397.88392 207.91806 397.32403 199.83963999999997 397.51828 191.96689999999998 C 397.72396 184.08272999999997 398.6952 176.40422999999998 403.01435 171.77657 C 407.33351 167.14891 415.012 165.57207 422.43912 165.83488 C 429.8548 166.08626 437.01912 168.17728 441.30399 172.80494 C 445.58886 177.43260999999998 446.9943 184.59691999999998 447.11999 191.88691999999998 C 447.23425 199.16548999999998 446.06876 206.56975999999997 441.78389 212.22578999999996 z M 467.22453 204.44241 C 473.06379000000004 199.64462 481.33705000000003 198.32231 488.67415 199.25845999999999 C 496.01126 200.19462 502.41221 203.38923999999997 506.80043 208.18703 C 511.18865 212.98480999999998 513.56414 219.38576999999998 514.31306 226.53564 C 515.0502799999999 233.67381 514.1609299999999 241.56091 509.77270999999996 246.88528 C 505.38448999999997 252.20964999999998 497.49739999999997 254.97131 490.44113999999996 254.14047 C 483.37317999999993 253.32133 477.14775999999995 248.898 471.3085 243.57362999999998 C 465.48094 238.24925 460.05125 232.02382999999998 459.03317999999996 224.76863999999998 C 458.01511999999997 217.51344999999998 461.39696999999995 209.24018999999998 467.22452999999996 204.44239999999996 z M 462.24254 283.31029 C 467.64582 278.301 473.62319 274.2598 480.25346 273.59565000000003 C 486.88373 272.93149000000005 494.17815 275.65564000000006 499.80656 280.66493 C 505.43496999999996 285.67421 509.39736999999997 292.96863 509.44239999999996 300.30808 C 509.47616999999997 307.63627 505.60382 315.02075 499.97540999999995 319.83867000000004 C 494.347 324.65659000000005 486.9625199999999 326.93047 479.49924999999996 327.02052000000003 C 472.02471999999995 327.11057000000005 464.46012999999994 325.02806000000004 459.05686 320.21014 C 453.65358999999995 315.39222 450.41162999999995 307.82764000000003 451.21085999999997 301.06229 C 452.01009999999997 294.29694 456.83928 288.31957 462.24255 283.31028000000003 z M 200.87092 443.44655 C 196.09924 448.88264 188.75448 452.41006 181.79628000000002 452.02349 C 174.83809000000002 451.63692 168.25438000000003 447.34844999999996 163.45854000000003 441.91236 C 158.67478000000003 436.47627 155.66681000000003 429.89256 155.75137000000004 423.40549 C 155.83593000000005 416.91843 159.01302000000004 410.50383999999997 163.80886000000004 404.46374 C 168.59262000000004 398.42364 175.00721000000004 392.75802 181.63924000000003 392.52849999999995 C 188.27127000000002 392.29896999999994 195.13282000000004 397.51761999999997 199.90450000000004 403.55771999999996 C 204.67618000000004 409.59781999999996 207.35799000000003 416.45937 207.59959000000003 423.56253 C 207.84120000000004 430.66569 205.64260000000004 438.01045 200.87092000000004 443.44653999999997 z M 237.34175 528.42646 C 231.89854 533.34891 223.25634 534.52683 215.64328 533.4977 C 208.03022 532.45617 201.44628 529.1952 196.22625 524.27275 C 190.99382 519.3627 187.11289 512.7787599999999 186.26975 505.36407999999994 C 185.41421 497.93699999999995 187.60886 489.66677999999996 192.82889 484.39714999999995 C 198.06132 479.12751999999995 206.33154 476.85847999999993 214.84974 476.61049999999994 C 223.36794 476.36251999999996 232.13412 478.1355899999999 237.57734 483.40521999999993 C 243.00815 488.67484999999994 245.10361 497.44102999999996 245.05401 506.14521999999994 C 244.99201 514.8617999999999 242.77257 523.5039999999999 237.34175000000002 528.4264499999999 z M 275.87957 489.15779 C 280.33157 483.91035999999997 288.72507 481.82088999999996 296.89301 482.04645999999997 C 305.06094 482.27203 313.01518 484.81264 318.12014 490.06005999999996 C 323.2251 495.29560999999995 325.48078 503.24985 325.61136999999997 511.32280999999995 C 325.74195999999995 519.39577 323.72371999999996 527.58745 318.61875999999995 532.06319 C 313.51379999999995 536.5389299999999 305.3221199999999 537.275 297.3441399999999 537.0494299999999 C 289.36614999999995 536.8357399999999 281.61373999999995 535.6366599999999 277.1617399999999 531.1609199999999 C 272.7097399999999 526.6970399999999 271.5581499999999 518.94463 271.2376099999999 510.87166999999994 C 270.9170599999999 502.7987099999999 271.4275599999999 494.4051999999999 275.8795599999999 489.15777999999995 z M 319.80196 407.78117 C 324.49621 402.58439999999996 332.58551 400.30469 340.80963 400.16986999999995 C 349.0215 400.03504999999996 357.36819 402.06962999999996 361.96438 407.25413999999995 C 366.56058 412.45089999999993 367.40628 420.79758999999996 367.56561 429.30360999999994 C 367.72494 437.80963999999994 367.19791 446.47498999999993 362.60172 451.2427799999999 C 358.00552 455.9982999999999 349.34016 456.84399999999994 341.43471 456.0840999999999 C 333.54152 455.3241999999999 326.40822 452.9341799999999 321.70172 448.17864999999995 C 317.00747 443.41085999999996 314.74002 436.27756999999997 314.27427 428.66626999999994 C 313.79627 421.0549699999999 315.09546 412.96566999999993 319.80196 407.78115999999994 z M 6.99116 297.9439 C 11.999379999999999 293.32959 19.95626 292.05784 27.39543 292.57554 C 34.8346 293.09324 41.75607 295.4004 46.73053 300.01471 C 51.70498 304.62901999999997 54.72117 311.55048999999997 54.237230000000004 317.99928 C 53.76455000000001 324.43681 49.791740000000004 330.41291 44.817280000000004 335.4774 C 39.85408 340.54188999999997 33.87798000000001 344.69478 27.001530000000002 345.61764 C 20.113820000000004 346.52925 12.314510000000002 344.19957999999997 7.306290000000004 339.13509 C 2.2980700000000045 334.0706 0.08095000000000407 326.27128999999996 0.002170000000004002 318.39319 C -0.076609999999996 310.51509 1.982950000000004 302.55821000000003 6.991170000000004 297.9439 z M 47.25966 258.75087 C 42.26351 264.55785000000003 34.14328 268.03966 26.309219999999996 267.75348 C 18.463239999999995 267.47923000000003 10.903429999999997 263.42508000000004 6.431939999999997 257.63002 C 1.9604499999999971 251.82304 0.5772699999999977 244.26323 0.1360799999999971 236.26224 C -0.2931900000000029 228.27317 0.21954999999999708 219.84291 4.691039999999997 214.4175 C 9.162529999999997 208.99209 17.592789999999997 206.57152 25.128749999999997 207.46581999999998 C 32.65277999999999 208.37203999999997 39.294439999999994 212.58120999999997 44.27867 218.00661999999997 C 49.26289 223.43203999999997 52.61353 230.07369999999997 53.352819999999994 237.44271999999998 C 54.104029999999995 244.82367 52.24388999999999 252.94389999999999 47.25966 258.75088 z M 112.9208 363.8903 C 106.68462 369.47791 100.0618 374.05527 92.85278 374.65394000000003 C 85.63128999999999 375.25261000000006 77.81111999999999 371.89755 72.7224 366.29746000000006 C 67.62120999999999 360.70984000000004 65.26392999999999 352.88968000000006 65.78777 345.59335000000004 C 66.32408 338.30950000000007 69.74150999999999 331.54948 74.83023 326.34851000000003 C 79.93142 321.14754000000005 86.69143 317.51808000000005 93.61359 317.35594000000003 C 100.53575000000001 317.19379000000004 107.62004 320.51144000000005 113.85622000000001 325.69994 C 120.09240000000001 330.90091 125.48045 337.98521000000005 125.24348 344.83253 C 125.0065 351.67986 119.15697 358.30268 112.92079000000001 363.89029 z M 114.031 213.81023 C 109.11383000000001 218.27080999999998 101.11757 219.20740999999998 94.01109000000001 218.31763999999998 C 86.90461 217.41616 80.68790000000001 214.68829999999997 74.83413000000002 210.21602 C 68.98035000000002 205.75544 63.48951000000002 199.53873 62.74023000000002 192.58444999999998 C 61.99095000000002 185.63016999999996 66.00664000000002 177.93830999999997 71.86041000000002 172.93918999999997 C 77.71418000000001 167.94006999999996 85.40604000000002 165.65708999999998 92.94570000000002 165.82099999999997 C 100.47366000000002 165.98490999999996 107.84941000000002 168.60739999999996 112.76658000000002 173.60651999999996 C 117.68375000000002 178.59392999999997 120.14234000000002 185.96968999999996 120.45844000000002 193.64983999999995 C 120.78625000000002 201.34169999999995 118.94817000000002 209.33795999999995 114.03100000000002 213.81023999999996 z M 239.02628 52.41097 C 233.14735000000002 57.19318 226.17169 59.78195 219.29806000000002 59.67993 C 212.43718 59.565149999999996 205.66556000000003 56.77234 200.87060000000002 51.99013 C 196.06288000000004 47.20792 193.21906 40.43631 192.39014000000003 32.84853 C 191.56122000000002 25.260759999999998 192.75997000000004 16.844059999999995 197.55493000000004 10.467779999999998 C 202.36265000000003 4.091499999999997 210.77934000000005 -0.24437000000000175 218.94098000000005 0.010679999999997136 C 227.10262000000006 0.26572999999999714 235.00921000000005 5.111709999999997 240.88814000000005 11.487989999999996 C 246.77983000000006 17.864269999999998 250.65660000000005 25.77086 250.18476000000004 33.20560999999999 C 249.71292000000005 40.653099999999995 244.91796000000005 47.62875999999999 239.02627000000004 52.41096999999999 z M 335.16367 187.91883 C 352.49313 205.24829000000003 359.30676000000005 233.09358000000003 357.02242 258.65454 C 354.77747 284.25488 343.39516000000003 307.5315 326.0657 327.18468 C 308.73624 346.79848000000004 285.45962 362.74946 259.97744 364.91564 C 234.49526 367.12121 206.8075 355.50259 188.49340999999998 335.88879 C 170.17932 316.27498999999995 161.23888999999997 288.58723999999995 164.62601999999998 264.32599 C 168.01314 240.06474 183.72780999999998 219.15123999999997 202.0419 201.82178 C 220.35599 184.49231999999998 241.2695 170.74690999999999 265.60951 167.24163 C 289.98891 163.77573999999998 317.8342 170.58936999999997 335.16366 187.91882999999999 z M 203.16733 78.5686 C 209.47889999999998 84.30161000000001 215.11987 91.28379000000001 215.30396 98.43690000000001 C 215.50119999999998 105.60316 210.21526 112.94037 203.90367999999998 119.01525000000001 C 197.59211 125.09014 190.25490999999997 129.87641000000002 182.69416999999999 130.09995 C 175.12027999999998 130.31034 167.34915999999998 125.95798 160.78776 119.88309000000001 C 154.2395 113.80820000000001 148.91412 106.03708 148.15147 97.49016 C 147.40196999999998 88.95639 151.20206 79.65997 157.75032 73.91381 C 164.31171999999998 68.16765 173.60814 65.9849 181.74743999999998 67.15517 C 189.87358999999998 68.31229 196.85575999999998 72.82244 203.16733999999997 78.5686 z" stroke-linecap="round" />
</g>
</svg>